<?xml version="1.0" standalone="no"?>
<!DOCTYPE svg PUBLIC "-//W3C//DTD SVG 20010904//EN"
 "http://www.w3.org/TR/2001/REC-SVG-20010904/DTD/svg10.dtd">
<svg version="1.0" xmlns="http://www.w3.org/2000/svg"
 width="260.000000pt" height="260.000000pt" viewBox="0 0 260.000000 260.000000"
 preserveAspectRatio="xMidYMid meet">
<metadata>
Created by potrace 1.14, written by Peter Selinger 2001-2017
</metadata>
<g transform="translate(0.000000,260.000000) scale(0.100000,-0.100000)"
fill="#000000" stroke="none">
<path d="M0 1300 l0 -1300 1300 0 1300 0 0 1300 0 1300 -1300 0 -1300 0 0
-1300z m1091 488 c1 -7 1 -17 0 -22 -5 -24 -34 -169 -46 -221 -7 -33 -20 -96
-30 -140 -93 -440 -98 -458 -149 -513 -31 -35 -48 -41 -139 -58 -95 -16 -210
-18 -237 -4 -17 9 -17 13 -4 72 8 35 22 69 31 76 9 6 39 12 65 12 68 0 111 21
130 61 16 33 42 147 108 459 17 80 38 178 47 218 l16 72 103 0 c76 0 104 -3
105 -12z m832 1 c21 -6 56 -26 77 -45 49 -44 66 -111 51 -200 -17 -106 -67
-169 -161 -206 -33 -12 -60 -26 -60 -29 0 -4 18 -9 39 -13 29 -4 46 -15 63
-39 20 -28 23 -43 23 -132 0 -89 -3 -106 -27 -151 -39 -75 -95 -118 -176 -138
-53 -13 -121 -16 -335 -16 -254 0 -317 6 -302 29 4 8 48 205 80 361 7 36 38
181 69 324 31 142 56 260 56 262 0 10 568 3 603 -7z"/>
<path d="M1503 1629 c-6 -8 -16 -43 -23 -79 -6 -36 -16 -89 -22 -118 -11 -56
-6 -74 14 -54 8 8 48 12 109 12 92 0 135 8 188 33 27 13 60 78 61 118 0 14 5
30 12 37 10 10 7 17 -10 35 -21 20 -33 22 -170 25 -116 3 -150 1 -159 -9z"/>
<path d="M1423 1238 c-8 -11 -63 -238 -63 -261 0 -4 7 -7 15 -7 8 0 15 5 15
10 0 6 46 10 119 10 168 0 206 17 231 105 6 22 16 55 21 72 13 42 9 48 -48 67
-59 20 -275 23 -290 4z"/>
</g>
</svg>
